<svg width="103" height="61" viewBox="0 0 103 61" fill="none" xmlns="http://www.w3.org/2000/svg">
<g clip-path="url(#clip0_11212_277)">
<path fill-rule="evenodd" clip-rule="evenodd" d="M2.48602 30.1655C3.85674 30.1655 4.97204 31.3804 4.97204 32.8751C4.97204 34.374 3.85674 35.5888 2.48602 35.5888C1.11277 35.5888 0 34.374 0 32.8751C0 31.3804 1.11277 30.1655 2.48602 30.1655ZM6.15941 39.476C8.66566 39.476 10.7002 41.6933 10.7002 44.4249C10.7002 47.1579 8.66566 49.3738 6.15941 49.3738C3.65316 49.3738 1.62236 47.1579 1.62236 44.4249C1.62236 41.6947 3.65316 39.476 6.15941 39.476ZM16.1047 49.1422C18.611 49.1422 20.6418 51.3581 20.6418 54.0939C20.6418 56.8255 18.611 59.0428 16.1047 59.0428C13.5985 59.0428 11.5639 56.8255 11.5639 54.0939C11.5639 51.3581 13.5985 49.1422 16.1047 49.1422ZM30.2558 53.6085C32.1058 53.6085 33.6068 55.2453 33.6068 57.2626C33.6068 59.28 32.1058 60.9167 30.2558 60.9167C28.4059 60.9167 26.9049 59.28 26.9049 57.2626C26.9049 55.2466 28.4059 53.6085 30.2558 53.6085ZM43.5559 43.0115C46.0622 43.0115 48.0967 45.2302 48.0967 47.9632C48.0967 50.6962 46.0634 52.9121 43.5559 52.9121C41.0522 52.9121 39.0189 50.6962 39.0189 47.9632C39.0189 45.2302 41.0522 43.0115 43.5559 43.0115ZM37.4964 2.0508C39.6511 2.0508 41.3936 3.95232 41.3936 6.29924C41.3936 8.64478 39.6511 10.5477 37.4964 10.5477C35.348 10.5477 33.603 8.64616 33.603 6.29924C33.603 3.95232 35.3493 2.0508 37.4964 2.0508ZM22.9141 0.229248C24.6427 0.229248 26.0476 1.75985 26.0476 3.6462C26.0476 5.53394 24.644 7.06592 22.9141 7.06592C21.1855 7.06592 19.7807 5.53256 19.7807 3.6462C19.7807 1.75985 21.1843 0.229248 22.9141 0.229248ZM10.1603 7.77192C11.5336 7.77192 12.6463 8.98675 12.6463 10.4815C12.6463 11.9804 11.5336 13.1952 10.1603 13.1952C8.78579 13.1952 7.67429 11.9804 7.67429 10.4815C7.67429 8.98675 8.78579 7.77192 10.1603 7.77192ZM47.228 11.4674C49.862 11.4674 52.0003 13.7978 52.0003 16.6714C52.0003 19.5451 49.862 21.8769 47.228 21.8769C44.5903 21.8769 42.4533 19.5451 42.4533 16.6714C42.4533 13.7978 44.5903 11.4674 47.228 11.4674ZM3.13345 19.9119C4.20954 19.9119 5.08079 20.862 5.08079 22.0327C5.08079 23.2034 4.20954 24.1521 3.13345 24.1521C2.06114 24.1521 1.1899 23.2034 1.1899 22.0327C1.1899 20.862 2.06114 19.9119 3.13345 19.9119Z" fill="#1BBF00"/>
<path d="M94.854 31.2427C94.6833 30.607 94.3419 30.0899 93.8323 29.69C93.3227 29.2915 92.7296 29.093 92.0556 29.093C91.3248 29.093 90.6824 29.3177 90.1323 29.7645C89.7871 30.043 89.4659 30.5381 89.1713 31.2427H94.854ZM97.4918 33.4972H89.0537C89.1776 34.3067 89.5064 34.952 90.035 35.4305C90.561 35.909 91.235 36.1503 92.0556 36.1503C93.0369 36.1503 93.8816 35.7738 94.5859 35.0264L96.8013 36.1613C96.2488 37.0121 95.5887 37.6436 94.8173 38.0545C94.0472 38.4641 93.1355 38.6668 92.0759 38.6668C90.4333 38.6668 89.0967 38.1028 88.0687 36.9749C87.033 35.8441 86.5171 34.4294 86.5171 32.7306C86.5171 30.989 87.033 29.5466 88.0623 28.3952C89.0942 27.2466 90.3814 26.6702 91.933 26.6702C93.5781 26.6702 94.9185 27.2452 95.9541 28.3952C96.9834 29.5466 97.5019 31.0648 97.5019 32.9526L97.4918 33.4972ZM81.4199 22.761H84.0374V26.9612H85.5928V29.428H84.0374V38.3717H81.4199V29.428H80.0732V26.9612H81.4199V22.761ZM73.0729 29.3122C72.2585 29.3122 71.582 29.6225 71.0459 30.2499C70.5059 30.8773 70.2379 31.6784 70.2379 32.6547C70.2379 33.6448 70.5097 34.4528 71.0585 35.0899C71.6048 35.7283 72.2813 36.0455 73.083 36.0455C73.9113 36.0455 74.5941 35.7311 75.1404 35.105C75.6866 34.4818 75.9585 33.6613 75.9585 32.6464C75.9585 31.6564 75.6866 30.8483 75.1404 30.2389C74.5941 29.6197 73.9075 29.3122 73.0729 29.3122ZM75.8346 26.9612H78.4521V38.3717H75.8346V37.1651C75.3224 37.6988 74.8053 38.078 74.2893 38.3165C73.7734 38.5468 73.2132 38.6654 72.6101 38.6654C71.2558 38.6654 70.0899 38.0918 69.1011 36.9514C68.1122 35.8097 67.6203 34.388 67.6203 32.6878C67.6203 30.9283 68.0958 29.4846 69.0518 28.358C70.0065 27.2342 71.1698 26.6702 72.5329 26.6702C73.1627 26.6702 73.7494 26.7998 74.3058 27.0577C74.8558 27.3169 75.3642 27.7058 75.8333 28.2243V26.9612H75.8346ZM55.9502 26.9612H58.6208L61.2675 33.6944L63.8976 26.9612H66.5645L62.1071 38.3717H60.4076L55.9502 26.9612ZM49.419 29.3646C48.6009 29.3646 47.9206 29.6749 47.3819 30.2926C46.8394 30.9131 46.5714 31.7033 46.5714 32.6671C46.5714 33.6613 46.8357 34.4638 47.3756 35.0788C47.9118 35.6952 48.5857 36.0041 49.4064 36.0041C50.2271 36.0041 50.9112 35.6938 51.4574 35.0678C51.9999 34.4445 52.2756 33.6462 52.2756 32.6671C52.2756 31.6895 52.0075 30.8952 51.4713 30.283C50.9339 29.6707 50.2498 29.3646 49.419 29.3646ZM49.376 26.6688C50.3649 26.6688 51.2956 26.9391 52.1643 27.4755C53.0317 28.0105 53.7095 28.7455 54.1976 29.6666C54.687 30.5891 54.9285 31.5847 54.9285 32.6533C54.9285 33.733 54.6806 34.7396 54.1951 35.6759C53.7019 36.6136 53.0355 37.3444 52.1883 37.8739C51.3411 38.3993 50.4091 38.6654 49.39 38.6654C47.889 38.6654 46.6093 38.0821 45.5459 36.9183C44.4875 35.7559 43.9538 34.3397 43.9538 32.6782C43.9538 30.8952 44.557 29.4101 45.7532 28.2215C46.8053 27.1887 48.0116 26.6688 49.376 26.6688ZM32.6441 26.9612H35.2578V28.1291C35.8572 27.5789 36.3934 27.2011 36.8827 26.9901C37.362 26.775 37.8577 26.6688 38.3635 26.6688C39.4054 26.6688 40.283 27.066 41.0101 27.8547C41.6196 28.5249 41.9218 29.5177 41.9218 30.8345V38.3717H39.3258V33.3731C39.3258 32.008 39.2726 31.1021 39.1576 30.6539C39.0476 30.2085 38.849 29.8679 38.5708 29.6321C38.2927 29.3977 37.9512 29.2819 37.539 29.2819C37.0029 29.2819 36.5502 29.4736 36.1683 29.8652C35.7864 30.2499 35.5183 30.7877 35.3742 31.473C35.297 31.8315 35.2566 32.6023 35.2566 33.7909V38.3717H32.6428V26.9612H32.6441ZM20.8222 26.9612H23.4398V28.1291C24.0366 27.5789 24.5753 27.2011 25.0621 26.9901C25.5452 26.775 26.0409 26.6688 26.5467 26.6688C27.5861 26.6688 28.4662 27.066 29.1907 27.8547C29.8002 28.5249 30.1024 29.5177 30.1024 30.8345V38.3717H27.5089V33.3731C27.5089 32.008 27.452 31.1021 27.3382 30.6539C27.2282 30.2085 27.0335 29.8679 26.7515 29.6321C26.4733 29.3977 26.1319 29.2819 25.7222 29.2819C25.1861 29.2819 24.7308 29.4736 24.3477 29.8652C23.9696 30.2499 23.7015 30.7877 23.5536 31.473C23.4802 31.8315 23.4398 32.6023 23.4398 33.7909V38.3717H20.8222V26.9612V26.9612ZM15.4102 22.9458H18.0808V38.3717H15.4102V22.9458Z" fill="#F3F3F4"/>
<path d="M57.934 43.5147C57.9897 43.4389 58.0569 43.4009 58.1358 43.4009C58.2007 43.4009 58.2587 43.4288 58.3097 43.4844C58.3607 43.54 58.3862 43.6083 58.3862 43.6892C58.3862 43.7651 58.3653 43.8283 58.3236 43.8789L56.6332 46.2077V48.4987C56.6332 48.5998 56.6053 48.6782 56.5497 48.7339C56.4987 48.7895 56.4314 48.8173 56.348 48.8173C56.2645 48.8173 56.1949 48.7895 56.1393 48.7339C56.0882 48.6782 56.0627 48.5998 56.0627 48.4987V46.2002L54.3723 43.8789C54.3259 43.8232 54.3027 43.76 54.3027 43.6892C54.3027 43.6083 54.3282 43.54 54.3793 43.4844C54.4349 43.4288 54.4975 43.4009 54.5671 43.4009C54.6459 43.4009 54.7132 43.4389 54.7688 43.5147L56.3549 45.7222L57.934 43.5147Z" fill="#1BBF00"/>
<path d="M59.836 48.8325C59.516 48.8325 59.2332 48.7541 58.9874 48.5973C58.7462 48.4405 58.5584 48.218 58.4239 47.9298C58.294 47.6364 58.2291 47.2976 58.2291 46.9132C58.2291 46.5289 58.294 46.1926 58.4239 45.9043C58.5584 45.611 58.7462 45.3859 58.9874 45.2292C59.2332 45.0724 59.516 44.994 59.836 44.994C60.156 44.994 60.4389 45.0724 60.6847 45.2292C60.9305 45.3859 61.1184 45.611 61.2482 45.9043C61.3827 46.1926 61.45 46.5289 61.45 46.9132C61.45 47.2976 61.3827 47.6364 61.2482 47.9298C61.1184 48.218 60.9305 48.4405 60.6847 48.5973C60.4389 48.7541 60.156 48.8325 59.836 48.8325ZM59.836 48.3242C60.17 48.3242 60.425 48.2054 60.6013 47.9677C60.7821 47.7249 60.8726 47.3735 60.8726 46.9132C60.8726 46.4631 60.7821 46.1167 60.6013 45.874C60.4204 45.6262 60.1653 45.5023 59.836 45.5023C59.5068 45.5023 59.2517 45.6262 59.0708 45.874C58.89 46.1167 58.7995 46.4631 58.7995 46.9132C58.7995 47.3684 58.8876 47.7173 59.0639 47.9601C59.2447 48.2028 59.5021 48.3242 59.836 48.3242Z" fill="#1BBF00"/>
<path d="M64.8634 45.0092C64.9516 45.0092 65.0188 45.037 65.0652 45.0926C65.1162 45.1482 65.1417 45.2216 65.1417 45.3126V48.5215C65.1417 48.6074 65.1162 48.6782 65.0652 48.7339C65.0188 48.7895 64.9516 48.8173 64.8634 48.8173C64.78 48.8173 64.7127 48.792 64.6617 48.7414C64.6153 48.6858 64.5921 48.615 64.5921 48.529V48.1497C64.4855 48.3723 64.3347 48.5417 64.14 48.658C63.9498 48.7743 63.7342 48.8325 63.493 48.8325C63.0895 48.8325 62.7858 48.7111 62.5817 48.4684C62.3776 48.2205 62.2756 47.8564 62.2756 47.376V45.3126C62.2756 45.2216 62.3011 45.1482 62.3521 45.0926C62.4031 45.037 62.4727 45.0092 62.5608 45.0092C62.6489 45.0092 62.7162 45.037 62.7626 45.0926C62.8136 45.1482 62.8391 45.2216 62.8391 45.3126V47.3608C62.8391 47.6895 62.8994 47.9323 63.02 48.0891C63.1405 48.2408 63.3307 48.3166 63.5904 48.3166C63.8872 48.3166 64.126 48.213 64.3069 48.0056C64.4878 47.7932 64.5782 47.5151 64.5782 47.1712V45.3126C64.5782 45.2216 64.6037 45.1482 64.6547 45.0926C64.7058 45.037 64.7753 45.0092 64.8634 45.0092Z" fill="#1BBF00"/>
<path d="M67.8655 45.0092C68.0603 44.994 68.1577 45.08 68.1577 45.2671C68.1577 45.348 68.1368 45.4138 68.0951 45.4643C68.0533 45.5098 67.9814 45.5377 67.8794 45.5478L67.6707 45.5705C67.36 45.6009 67.1281 45.7222 66.9751 45.9347C66.8267 46.142 66.7525 46.3873 66.7525 46.6705V48.5139C66.7525 48.615 66.727 48.6909 66.6759 48.7414C66.6249 48.792 66.5577 48.8173 66.4742 48.8173C66.3907 48.8173 66.3212 48.792 66.2655 48.7414C66.2145 48.6858 66.189 48.61 66.189 48.5139V45.3126C66.189 45.2165 66.2168 45.1432 66.2725 45.0926C66.3281 45.037 66.3954 45.0092 66.4742 45.0092C66.5484 45.0092 66.611 45.037 66.662 45.0926C66.713 45.1432 66.7385 45.214 66.7385 45.305V45.7298C66.8359 45.5073 66.9728 45.3379 67.149 45.2216C67.3299 45.1053 67.5362 45.037 67.7681 45.0168L67.8655 45.0092Z" fill="#1BBF00"/>
<path d="M72.0836 48.8401C71.7358 48.8401 71.4019 48.7844 71.0819 48.6732C70.7665 48.5569 70.5137 48.4026 70.3236 48.2104C70.254 48.1396 70.2193 48.0511 70.2193 47.9449C70.2193 47.8741 70.2378 47.8134 70.2749 47.7629C70.312 47.7072 70.3561 47.6794 70.4071 47.6794C70.4674 47.6794 70.5323 47.7072 70.6019 47.7629C71.0332 48.127 71.5248 48.309 72.0766 48.309C72.4755 48.309 72.7816 48.2256 72.9949 48.0587C73.2082 47.8918 73.3149 47.6541 73.3149 47.3456C73.3149 47.1686 73.2639 47.027 73.1619 46.9208C73.0598 46.8096 72.9253 46.7211 72.7584 46.6553C72.5914 46.5896 72.3665 46.5213 72.0836 46.4505C71.7033 46.3544 71.3903 46.2533 71.1445 46.1471C70.9033 46.0409 70.7062 45.8891 70.5532 45.6919C70.4048 45.4947 70.3306 45.2367 70.3306 44.9181C70.3306 44.6147 70.4048 44.3467 70.5532 44.114C70.7062 43.8763 70.9172 43.6943 71.1862 43.5678C71.4598 43.4364 71.7706 43.3706 72.1184 43.3706C72.443 43.3706 72.7445 43.4262 73.0227 43.5375C73.3056 43.6437 73.5422 43.7979 73.7323 44.0002C73.8065 44.0812 73.8436 44.1697 73.8436 44.2657C73.8436 44.3365 73.8251 44.3998 73.7879 44.4554C73.7508 44.506 73.7068 44.5313 73.6558 44.5313C73.6048 44.5313 73.5375 44.5034 73.454 44.4478C73.2268 44.2455 73.0158 44.1039 72.821 44.023C72.6262 43.9421 72.392 43.9016 72.1184 43.9016C71.7335 43.9016 71.4343 43.9901 71.221 44.1671C71.0077 44.3391 70.901 44.5818 70.901 44.8954C70.901 45.1634 70.9937 45.3657 71.1793 45.5023C71.3694 45.6337 71.6593 45.7501 72.0488 45.8512C72.4708 45.9625 72.8024 46.0661 73.0436 46.1622C73.2848 46.2533 73.4842 46.3923 73.6419 46.5795C73.8042 46.7666 73.8853 47.0169 73.8853 47.3305C73.8853 47.6288 73.8088 47.8918 73.6558 48.1194C73.5074 48.347 73.2964 48.524 73.0227 48.6504C72.7491 48.7768 72.4361 48.8401 72.0836 48.8401Z" fill="#1BBF00"/>
<path d="M76.1336 48.8325C75.8136 48.8325 75.5307 48.7541 75.2849 48.5973C75.0437 48.4405 74.8559 48.218 74.7214 47.9298C74.5916 47.6364 74.5266 47.2976 74.5266 46.9132C74.5266 46.5289 74.5916 46.1926 74.7214 45.9043C74.8559 45.611 75.0437 45.3859 75.2849 45.2292C75.5307 45.0724 75.8136 44.994 76.1336 44.994C76.4536 44.994 76.7365 45.0724 76.9823 45.2292C77.2281 45.3859 77.4159 45.611 77.5458 45.9043C77.6803 46.1926 77.7475 46.5289 77.7475 46.9132C77.7475 47.2976 77.6803 47.6364 77.5458 47.9298C77.4159 48.218 77.2281 48.4405 76.9823 48.5973C76.7365 48.7541 76.4536 48.8325 76.1336 48.8325ZM76.1336 48.3242C76.4675 48.3242 76.7226 48.2054 76.8988 47.9677C77.0797 47.7249 77.1701 47.3735 77.1701 46.9132C77.1701 46.4631 77.0797 46.1167 76.8988 45.874C76.7179 45.6262 76.4629 45.5023 76.1336 45.5023C75.8043 45.5023 75.5493 45.6262 75.3684 45.874C75.1875 46.1167 75.0971 46.4631 75.0971 46.9132C75.0971 47.3684 75.1852 47.7173 75.3614 47.9601C75.5423 48.2028 75.7997 48.3242 76.1336 48.3242Z" fill="#1BBF00"/>
<path d="M78.8723 48.8173C78.7888 48.8173 78.7193 48.792 78.6636 48.7414C78.6126 48.6858 78.5871 48.61 78.5871 48.5139V43.6968C78.5871 43.6007 78.6126 43.5274 78.6636 43.4768C78.7193 43.4212 78.7888 43.3934 78.8723 43.3934C78.9511 43.3934 79.0161 43.4212 79.0671 43.4768C79.1227 43.5274 79.1506 43.6007 79.1506 43.6968V48.5139C79.1506 48.61 79.1227 48.6858 79.0671 48.7414C79.0161 48.792 78.9511 48.8173 78.8723 48.8173Z" fill="#1BBF00"/>
<path d="M82.7778 45.0092C82.866 45.0092 82.9332 45.037 82.9796 45.0926C83.0306 45.1482 83.0561 45.2216 83.0561 45.3126V48.5215C83.0561 48.6074 83.0306 48.6782 82.9796 48.7339C82.9332 48.7895 82.866 48.8173 82.7778 48.8173C82.6944 48.8173 82.6271 48.792 82.5761 48.7414C82.5297 48.6858 82.5065 48.615 82.5065 48.529V48.1497C82.3999 48.3723 82.2491 48.5417 82.0544 48.658C81.8642 48.7743 81.6486 48.8325 81.4074 48.8325C81.0039 48.8325 80.7002 48.7111 80.4961 48.4684C80.292 48.2205 80.19 47.8564 80.19 47.376V45.3126C80.19 45.2216 80.2155 45.1482 80.2665 45.0926C80.3175 45.037 80.3871 45.0092 80.4752 45.0092C80.5633 45.0092 80.6306 45.037 80.677 45.0926C80.728 45.1482 80.7535 45.2216 80.7535 45.3126V47.3608C80.7535 47.6895 80.8138 47.9323 80.9344 48.0891C81.0549 48.2408 81.2451 48.3166 81.5048 48.3166C81.8016 48.3166 82.0404 48.213 82.2213 48.0056C82.4022 47.7932 82.4926 47.5151 82.4926 47.1712V45.3126C82.4926 45.2216 82.5181 45.1482 82.5691 45.0926C82.6202 45.037 82.6897 45.0092 82.7778 45.0092Z" fill="#1BBF00"/>
<path d="M85.6686 48.3318C85.8309 48.347 85.9121 48.4279 85.9121 48.5746C85.9121 48.6605 85.8819 48.7263 85.8216 48.7718C85.766 48.8122 85.6802 48.8274 85.5642 48.8173L85.3764 48.8021C85.0054 48.7718 84.7318 48.6504 84.5556 48.438C84.3793 48.2256 84.2912 47.9045 84.2912 47.4746V45.5705H83.8251C83.7463 45.5705 83.6837 45.5503 83.6373 45.5098C83.5956 45.4643 83.5747 45.4062 83.5747 45.3354C83.5747 45.2595 83.5956 45.1988 83.6373 45.1533C83.6837 45.1078 83.7463 45.085 83.8251 45.085H84.2912V44.2278C84.2912 44.1317 84.3167 44.0584 84.3677 44.0078C84.4187 43.9522 84.4883 43.9244 84.5764 43.9244C84.6599 43.9244 84.7271 43.9522 84.7782 44.0078C84.8292 44.0584 84.8547 44.1317 84.8547 44.2278V45.085H85.6269C85.7011 45.085 85.759 45.1078 85.8008 45.1533C85.8471 45.1988 85.8703 45.2595 85.8703 45.3354C85.8703 45.4062 85.8471 45.4643 85.8008 45.5098C85.759 45.5503 85.7011 45.5705 85.6269 45.5705H84.8547V47.5049C84.8547 47.7831 84.9057 47.9854 85.0077 48.1118C85.1144 48.2332 85.2721 48.3015 85.4808 48.3166L85.6686 48.3318Z" fill="#1BBF00"/>
<path d="M86.7527 48.8173C86.6693 48.8173 86.5997 48.792 86.544 48.7414C86.493 48.6858 86.4675 48.61 86.4675 48.5139V45.3126C86.4675 45.2165 86.493 45.1432 86.544 45.0926C86.5997 45.037 86.6693 45.0092 86.7527 45.0092C86.8362 45.0092 86.9035 45.037 86.9545 45.0926C87.0055 45.1432 87.031 45.2165 87.031 45.3126V48.5139C87.031 48.615 87.0055 48.6909 86.9545 48.7414C86.9035 48.792 86.8362 48.8173 86.7527 48.8173ZM86.7527 44.2126C86.6414 44.2126 86.551 44.1772 86.4814 44.1064C86.4119 44.0356 86.3771 43.9421 86.3771 43.8258C86.3771 43.7145 86.4119 43.6235 86.4814 43.5527C86.551 43.4819 86.6414 43.4465 86.7527 43.4465C86.864 43.4465 86.9545 43.4819 87.024 43.5527C87.0936 43.6235 87.1284 43.7145 87.1284 43.8258C87.1284 43.9421 87.0936 44.0356 87.024 44.1064C86.9545 44.1772 86.864 44.2126 86.7527 44.2126Z" fill="#1BBF00"/>
<path d="M89.4896 48.8325C89.1696 48.8325 88.8867 48.7541 88.6409 48.5973C88.3997 48.4405 88.2119 48.218 88.0774 47.9298C87.9475 47.6364 87.8826 47.2976 87.8826 46.9132C87.8826 46.5289 87.9475 46.1926 88.0774 45.9043C88.2119 45.611 88.3997 45.3859 88.6409 45.2292C88.8867 45.0724 89.1696 44.994 89.4896 44.994C89.8096 44.994 90.0925 45.0724 90.3383 45.2292C90.5841 45.3859 90.7719 45.611 90.9017 45.9043C91.0362 46.1926 91.1035 46.5289 91.1035 46.9132C91.1035 47.2976 91.0362 47.6364 90.9017 47.9298C90.7719 48.218 90.5841 48.4405 90.3383 48.5973C90.0925 48.7541 89.8096 48.8325 89.4896 48.8325ZM89.4896 48.3242C89.8235 48.3242 90.0786 48.2054 90.2548 47.9677C90.4357 47.7249 90.5261 47.3735 90.5261 46.9132C90.5261 46.4631 90.4357 46.1167 90.2548 45.874C90.0739 45.6262 89.8189 45.5023 89.4896 45.5023C89.1603 45.5023 88.9052 45.6262 88.7244 45.874C88.5435 46.1167 88.4531 46.4631 88.4531 46.9132C88.4531 47.3684 88.5412 47.7173 88.7174 47.9601C88.8983 48.2028 89.1557 48.3242 89.4896 48.3242Z" fill="#1BBF00"/>
<path d="M93.6474 44.994C94.459 44.994 94.8648 45.482 94.8648 46.4581V48.5139C94.8648 48.61 94.8393 48.6858 94.7883 48.7414C94.7419 48.792 94.6746 48.8173 94.5865 48.8173C94.4984 48.8173 94.4289 48.792 94.3778 48.7414C94.3268 48.6858 94.3013 48.61 94.3013 48.5139V46.496C94.3013 46.1521 94.2387 45.9018 94.1135 45.745C93.9929 45.5882 93.7981 45.5098 93.5291 45.5098C93.2184 45.5098 92.9703 45.6135 92.7848 45.8209C92.5993 46.0282 92.5065 46.3089 92.5065 46.6629V48.5139C92.5065 48.61 92.481 48.6858 92.43 48.7414C92.3836 48.792 92.3164 48.8173 92.2283 48.8173C92.1402 48.8173 92.0706 48.792 92.0196 48.7414C91.9686 48.6858 91.9431 48.61 91.9431 48.5139V45.3126C91.9431 45.2216 91.9686 45.1482 92.0196 45.0926C92.0706 45.037 92.1402 45.0092 92.2283 45.0092C92.3117 45.0092 92.3767 45.037 92.4231 45.0926C92.4741 45.1482 92.4996 45.219 92.4996 45.305V45.6919C92.6109 45.4643 92.7662 45.2924 92.9657 45.1761C93.1651 45.0547 93.3923 44.994 93.6474 44.994Z" fill="#1BBF00"/>
</g>
<defs>
<clipPath id="clip0_11212_277">
<rect width="102.957" height="60.6875" fill="white" transform="translate(0 0.229248)"/>
</clipPath>
</defs>
</svg>
